<?xml version="1.0" standalone="no"?><svg  xmlns="http://www.w3.org/2000/svg" viewBox="0 0 1440 320"><path fill="#161b22" fill-opacity="1" d="M0,288L11.4,256C22.9,224,46,160,69,154.7C91.4,149,114,203,137,186.7C160,171,183,85,206,90.7C228.6,96,251,192,274,213.3C297.1,235,320,181,343,186.7C365.7,192,389,256,411,256C434.3,256,457,192,480,149.3C502.9,107,526,85,549,85.3C571.4,85,594,107,617,144C640,181,663,235,686,218.7C708.6,203,731,117,754,117.3C777.1,117,800,203,823,240C845.7,277,869,267,891,256C914.3,245,937,235,960,240C982.9,245,1006,267,1029,266.7C1051.4,267,1074,245,1097,234.7C1120,224,1143,224,1166,234.7C1188.6,245,1211,267,1234,282.7C1257.1,299,1280,309,1303,282.7C1325.7,256,1349,192,1371,154.7C1394.3,117,1417,107,1429,101.3L1440,96L1440,320L1428.6,320C1417.1,320,1394,320,1371,320C1348.6,320,1326,320,1303,320C1280,320,1257,320,1234,320C1211.4,320,1189,320,1166,320C1142.9,320,1120,320,1097,320C1074.3,320,1051,320,1029,320C1005.7,320,983,320,960,320C937.1,320,914,320,891,320C868.6,320,846,320,823,320C800,320,777,320,754,320C731.4,320,709,320,686,320C662.9,320,640,320,617,320C594.3,320,571,320,549,320C525.7,320,503,320,480,320C457.1,320,434,320,411,320C388.6,320,366,320,343,320C320,320,297,320,274,320C251.4,320,229,320,206,320C182.9,320,160,320,137,320C114.3,320,91,320,69,320C45.7,320,23,320,11,320L0,320Z"></path></svg>