<?xml version="1.0" standalone="no"?><svg  xmlns="http://www.w3.org/2000/svg" viewBox="0 0 1440 520"><path fill="#161b22" fill-opacity="1" d="M0,288L11.4,256C22.9,224,46,160,69,154.7C91.4,149,114,203,137,186.7C160,171,183,85,206,90.7C228.6,96,251,192,274,213.3C297.1,235,320,181,343,186.7C365.7,192,389,256,411,256C434.3,256,457,192,480,149.3C502.9,107,526,85,549,85.3C571.4,85,594,107,617,144C640,181,663,235,686,218.7C708.6,203,731,117,754,117.3C777.1,117,800,203,823,240C845.7,277,869,267,891,256C914.3,245,937,235,960,240C982.9,245,1006,267,1029,266.7C1051.4,267,1074,245,1097,234.7C1120,224,1143,224,1166,234.7C1188.6,245,1211,267,1234,282.7C1257.1,299,1280,309,1303,282.7C1325.7,256,1349,192,1371,154.7C1394.3,117,1417,107,1429,101.3L1440,96L1440,0L1428.6,0C1417.1,0,1394,0,1371,0C1348.6,0,1326,0,1303,0C1280,0,1257,0,1234,0C1211.4,0,1189,0,1166,0C1142.9,0,1120,0,1097,0C1074.3,0,1051,0,1029,0C1005.7,0,983,0,960,0C937.1,0,914,0,891,0C868.6,0,846,0,823,0C800,0,777,0,754,0C731.4,0,709,0,686,0C662.9,0,640,0,617,0C594.3,0,571,0,549,0C525.7,0,503,0,480,0C457.1,0,434,0,411,0C388.6,0,366,0,343,0C320,0,297,0,274,0C251.4,0,229,0,206,0C182.9,0,160,0,137,0C114.3,0,91,0,69,0C45.7,0,23,0,11,0L0,0Z"></path></svg>